<svg width="42" height="32" viewBox="0 0 42 32" fill="none" xmlns="http://www.w3.org/2000/svg">
<path d="M37 0H5C3.67441 0.00158786 2.40356 0.528882 1.46622 1.46622C0.528882 2.40356 0.00158786 3.67441 0 5L0 27C0.00158786 28.3256 0.528882 29.5964 1.46622 30.5338C2.40356 31.4711 3.67441 31.9984 5 32H37C38.3256 31.9984 39.5964 31.4711 40.5338 30.5338C41.4711 29.5964 41.9984 28.3256 42 27V5C41.9984 3.67441 41.4711 2.40356 40.5338 1.46622C39.5964 0.528882 38.3256 0.00158786 37 0ZM5 2H37C37.7957 2 38.5587 2.31607 39.1213 2.87868C39.6839 3.44129 40 4.20435 40 5V8H2V5C2 4.20435 2.31607 3.44129 2.87868 2.87868C3.44129 2.31607 4.20435 2 5 2ZM37 30H5C4.20435 30 3.44129 29.6839 2.87868 29.1213C2.31607 28.5587 2 27.7956 2 27V12H40V27C40 27.7956 39.6839 28.5587 39.1213 29.1213C38.5587 29.6839 37.7957 30 37 30ZM6 21.5V17.5C6 17.1022 6.15804 16.7206 6.43934 16.4393C6.72064 16.158 7.10218 16 7.5 16H13.5C13.8978 16 14.2794 16.158 14.5607 16.4393C14.842 16.7206 15 17.1022 15 17.5V21.5C15 21.8978 14.842 22.2794 14.5607 22.5607C14.2794 22.842 13.8978 23 13.5 23H7.5C7.10218 23 6.72064 22.842 6.43934 22.5607C6.15804 22.2794 6 21.8978 6 21.5Z" fill="#5DE0E6"/>
</svg>
