<svg width="43" height="36" viewBox="0 0 43 36" fill="none" xmlns="http://www.w3.org/2000/svg">
<g clip-path="url(#clip0_0_541)">
<path d="M38.5005 17C38.3691 17 38.2391 17.0258 38.1177 17.0761C37.9964 17.1263 37.8861 17.2 37.7933 17.2928C37.7004 17.3857 37.6268 17.4959 37.5765 17.6173C37.5263 17.7386 37.5004 17.8687 37.5005 18V29C37.4989 30.3256 36.9716 31.5965 36.0343 32.5338C35.0969 33.4712 33.8261 33.9984 32.5005 34H10.5005C9.17486 33.9984 7.90399 33.4712 6.96665 32.5338C6.0293 31.5965 5.50202 30.3256 5.50046 29V25.1641L7.04346 26.7071C7.1361 26.8009 7.24637 26.8754 7.36793 26.9264C7.4895 26.9775 7.61995 27.004 7.75179 27.0044C7.88362 27.0048 8.01424 26.9791 8.13612 26.9288C8.258 26.8786 8.36874 26.8047 8.46196 26.7115C8.55518 26.6183 8.62904 26.5075 8.6793 26.3856C8.72956 26.2638 8.75521 26.1331 8.7548 26.0013C8.75438 25.8695 8.72789 25.739 8.67687 25.6175C8.62584 25.4959 8.55127 25.3856 8.45746 25.293L5.20746 22.043C5.11463 21.9501 5.00441 21.8764 4.8831 21.8262C4.76178 21.7759 4.63175 21.75 4.50043 21.75C4.36912 21.75 4.23908 21.7759 4.11777 21.8262C3.99645 21.8764 3.88623 21.9501 3.7934 22.043L0.543403 25.293C0.449597 25.3856 0.375037 25.4959 0.324014 25.6175C0.27299 25.739 0.246511 25.8695 0.246099 26.0013C0.245687 26.1332 0.27135 26.2638 0.321613 26.3857C0.371876 26.5075 0.445745 26.6183 0.53897 26.7115C0.632194 26.8047 0.742934 26.8786 0.864816 26.9288C0.986698 26.9791 1.11731 27.0048 1.24915 27.0043C1.38099 27.0039 1.51144 26.9774 1.633 26.9264C1.75456 26.8754 1.86483 26.8008 1.95746 26.707L3.50046 25.164V29C3.50263 30.8559 4.24082 32.6351 5.55311 33.9474C6.86539 35.2596 8.64461 35.9978 10.5005 36H32.5005C34.3563 35.9978 36.1355 35.2596 37.4478 33.9474C38.7601 32.6351 39.4983 30.8559 39.5005 29V18C39.5005 17.8687 39.4747 17.7386 39.4244 17.6173C39.3742 17.4959 39.3005 17.3857 39.2076 17.2928C39.1148 17.2 39.0045 17.1263 38.8832 17.0761C38.7618 17.0258 38.6318 17 38.5005 17Z" fill="#004AAD"/>
<path d="M28.1721 22.715C28.1243 22.7082 28.0756 22.7126 28.0299 22.7279C27.9841 22.7431 27.9425 22.7688 27.9084 22.8029C27.8743 22.837 27.8486 22.8786 27.8333 22.9244C27.8181 22.9702 27.8137 23.0188 27.8205 23.0666C27.8205 23.2893 27.9377 23.4006 28.1721 23.4006H30.8C30.8459 23.4078 30.8928 23.4041 30.937 23.39C30.9813 23.3759 31.0216 23.3517 31.0549 23.3193C31.0881 23.2869 31.1134 23.2472 31.1286 23.2033C31.1439 23.1595 31.1487 23.1127 31.1428 23.0666C31.1501 23.0195 31.1464 22.9714 31.1319 22.926C31.1174 22.8806 31.0925 22.8393 31.0593 22.8051C31.026 22.771 30.9853 22.7451 30.9403 22.7295C30.8953 22.7139 30.8472 22.7089 30.8 22.715H28.1721Z" fill="#004AAD"/>
<path d="M30.6016 11.3198C30.4106 11.1528 30.1885 11.0252 29.948 10.9445C29.7074 10.8638 29.4533 10.8315 29.2002 10.8496H13.4502C12.9479 10.8221 12.4546 10.9907 12.0742 11.3198C11.8966 11.5033 11.7598 11.7223 11.6728 11.9624C11.5858 12.2025 11.5505 12.4582 11.5693 12.7129V23.1455H10.6445C10.5134 23.1434 10.3832 23.1685 10.2622 23.2191C10.1411 23.2698 10.0319 23.345 9.94141 23.4399C9.75555 23.6286 9.65137 23.8829 9.65137 24.1477C9.65137 24.4126 9.75555 24.6668 9.94141 24.8555C10.0321 24.9502 10.1413 25.0252 10.2623 25.0757C10.3833 25.1263 10.5134 25.1514 10.6445 25.1494H31.3887C31.647 25.1602 31.905 25.1199 32.1478 25.0309C32.3906 24.942 32.6135 24.806 32.8037 24.6309C32.9848 24.4564 33.127 24.2457 33.2209 24.0124C33.3148 23.7791 33.3583 23.5286 33.3486 23.2773V14.9013C33.3583 14.6501 33.3148 14.3996 33.2209 14.1663C33.127 13.933 32.9848 13.7223 32.8037 13.5478C32.6135 13.3727 32.3906 13.2367 32.1478 13.1478C31.905 13.0588 31.647 13.0185 31.3887 13.0293H31.0811V12.7129C31.0997 12.4603 31.0668 12.2066 30.9844 11.9671C30.902 11.7276 30.7717 11.5074 30.6016 11.3198ZM25.6055 14.9014V23.1455H12.9844V13.1084C12.968 12.9938 12.9786 12.8769 13.0152 12.7671C13.0518 12.6573 13.1135 12.5575 13.1953 12.4756C13.2772 12.3937 13.377 12.332 13.4868 12.2954C13.5967 12.2588 13.7135 12.2483 13.8281 12.2647H28.8223C28.9365 12.2559 29.0513 12.27 29.16 12.3062C29.2687 12.3425 29.369 12.4 29.4551 12.4756C29.5873 12.6294 29.6584 12.8265 29.6548 13.0293H27.5654C27.3071 13.0186 27.0491 13.0588 26.8064 13.1478C26.5636 13.2368 26.3407 13.3727 26.1504 13.5479C25.9693 13.7223 25.8271 13.9331 25.7332 14.1663C25.6393 14.3996 25.5958 14.6501 25.6055 14.9014ZM31.1426 14.5674V14.2158H31.2393C31.4867 14.2017 31.7297 14.2853 31.916 14.4487C31.9996 14.5316 32.0648 14.6312 32.1072 14.741C32.1496 14.8508 32.1683 14.9684 32.1621 15.0859V23.0928C32.1683 23.2103 32.1496 23.3279 32.1072 23.4377C32.0648 23.5475 31.9996 23.6471 31.916 23.73C31.7297 23.8934 31.4867 23.977 31.2393 23.9629H27.7236C27.4735 23.978 27.2273 23.8943 27.0381 23.73C26.9545 23.6471 26.8893 23.5475 26.8469 23.4377C26.8045 23.3279 26.7858 23.2103 26.792 23.0928V15.0859C26.7858 14.9684 26.8045 14.8508 26.8469 14.741C26.8893 14.6312 26.9545 14.5316 27.0381 14.4487C27.2273 14.2844 27.4735 14.2008 27.7236 14.2158H27.8203V14.5674C27.8155 14.707 27.8661 14.8428 27.961 14.9453C28.0083 14.995 28.0658 15.034 28.1294 15.0598C28.1931 15.0856 28.2615 15.0975 28.3301 15.0947H30.6328C30.7014 15.0975 30.7698 15.0856 30.8335 15.0598C30.8971 15.034 30.9546 14.995 31.002 14.9453C31.0968 14.8428 31.1474 14.707 31.1426 14.5674Z" fill="#004AAD"/>
<path d="M42.4571 9.293C42.3642 9.20012 42.254 9.12644 42.1327 9.07617C42.0114 9.0259 41.8813 9.00003 41.75 9.00003C41.6187 9.00003 41.4887 9.0259 41.3674 9.07617C41.2461 9.12644 41.1358 9.20012 41.043 9.293L39.5 10.836V7C39.4978 5.14415 38.7596 3.36493 37.4474 2.05264C36.1351 0.740358 34.3559 0.0021649 32.5 0H10.5C8.64415 0.0021649 6.86493 0.740358 5.55264 2.05264C4.24036 3.36493 3.50216 5.14415 3.5 7V18C3.5 18.2652 3.60536 18.5196 3.79289 18.7071C3.98043 18.8946 4.23478 19 4.5 19C4.76522 19 5.01957 18.8946 5.20711 18.7071C5.39464 18.5196 5.5 18.2652 5.5 18V7C5.50156 5.6744 6.02884 4.40353 6.96619 3.46618C7.90353 2.52884 9.1744 2.00156 10.5 2H32.5C33.8256 2.00156 35.0965 2.52884 36.0338 3.46618C36.9712 4.40353 37.4984 5.6744 37.5 7V10.8359L35.957 9.29294C35.7689 9.10824 35.5155 9.00529 35.2519 9.00649C34.9882 9.0077 34.7358 9.11296 34.5494 9.29937C34.363 9.48579 34.2577 9.73827 34.2566 10.0019C34.2554 10.2655 34.3583 10.5189 34.5431 10.707L37.7931 13.957C37.8859 14.0499 37.9961 14.1236 38.1174 14.1738C38.2387 14.2241 38.3688 14.25 38.5001 14.25C38.6314 14.25 38.7614 14.2241 38.8828 14.1738C39.0041 14.1236 39.1143 14.0499 39.2071 13.957L42.4571 10.707C42.55 10.6142 42.6237 10.5039 42.6739 10.3826C42.7242 10.2613 42.75 10.1313 42.75 9.99999C42.75 9.86868 42.7242 9.73865 42.6739 9.61735C42.6236 9.49604 42.5499 9.38582 42.4571 9.293Z" fill="#004AAD"/>
</g>
<defs>
<clipPath id="clip0_0_541">
<rect width="43" height="36" fill="white"/>
</clipPath>
</defs>
</svg>
